<svg width="151" height="28" viewBox="0 0 151 28" fill="none" xmlns="http://www.w3.org/2000/svg">
<g clip-path="url(#clip0_365_153)">
<mask id="mask0_365_153" style="mask-type:luminance" maskUnits="userSpaceOnUse" x="0" y="0" width="151" height="28">
<path d="M151 0H0V28H151V0Z" fill="white"/>
</mask>
<g mask="url(#mask0_365_153)">
<path d="M14.8958 13.6902C16.8699 12.4874 18.1839 10.5889 18.5774 8.33767L18.7433 7.21364C19.4003 3.29685 16.7366 0.428528 11.9361 0.428528H4.47198L0 27.5721H8.05607C12.8565 27.5721 16.4731 24.6629 17.1301 20.7083L17.3285 19.4678C17.722 16.9867 16.8016 14.8929 14.8958 13.6902ZM12.1996 19.0018L11.9361 20.6705C11.7377 21.911 10.5539 22.843 8.68052 22.843H5.9518L7.0706 16.2122H9.7668C11.6402 16.2122 12.463 17.4149 12.1996 19.0049V19.0018ZM13.546 7.4057L13.3151 8.68401C13.0517 10.3118 11.8353 11.4768 9.96194 11.4768H7.85767L8.87566 5.15449H10.9799C12.8858 5.15449 13.7412 6.12424 13.546 7.40255V7.4057Z" fill="url(#paint0_linear_365_153)"/>
<path d="M18.4766 27.5718H31.795L32.5495 22.8427H24.4284L25.5472 16.1331H32.6829L33.4374 11.4009H26.3343L27.3555 5.15731H35.4441L36.267 0.425049H22.9486L18.4766 27.5718Z" fill="url(#paint1_linear_365_153)"/>
<path d="M37.9745 0.425049L37.1875 5.15731H42.2514L38.5665 27.5718H43.7637L47.4454 5.15731H52.5418L53.3321 0.425049H37.9745Z" fill="url(#paint2_linear_365_153)"/>
<path d="M67.5453 18.9259L67.2819 20.4782C66.5599 24.9365 62.7449 28 58.1721 28C53.5993 28 50.773 24.9365 51.495 20.4782L53.6643 7.52504C54.3538 3.06671 58.2013 0.00317383 62.7741 0.00317383C67.3469 0.00317383 70.1407 3.06671 69.4479 7.52504L69.1845 9.07728H63.9905L64.2865 7.17556C64.5499 5.70204 63.4636 4.73229 61.9838 4.73229C60.4064 4.73229 59.1217 5.70204 58.8941 7.17556L56.6239 20.8654C56.393 22.3767 57.346 23.2709 58.9266 23.2709C60.5072 23.2709 61.7887 22.3389 62.0163 20.8276L62.3448 18.9259H67.5388H67.5453Z" fill="white"/>
<path d="M73.8268 27.5718H68.6328L73.1015 0.428223H80.7641C85.3661 0.428223 88.1957 3.49176 87.4704 7.95009L87.1744 9.81088C86.6801 12.6036 85.0051 14.8139 82.6699 16.0922L85.2686 27.5718H80.0388L78.1654 17.295H75.5018L73.8235 27.5718H73.8268ZM77.5085 5.15733L76.2921 12.5659H78.6598C80.2372 12.5659 81.652 11.6748 81.9154 10.1226L82.3089 7.6006C82.5724 6.0893 81.4861 5.15733 79.9087 5.15733H77.5085Z" fill="white"/>
<path d="M94.5055 28C89.9359 28 87.1064 24.9365 87.8317 20.4782L90.001 7.52504C90.6905 3.06671 94.538 0.00317383 99.1108 0.00317383C103.684 0.00317383 106.478 3.06671 105.785 7.52504L103.616 20.4782C102.894 24.9365 99.0783 28 94.5055 28ZM100.623 7.17556C100.887 5.70204 99.8003 4.73229 98.3205 4.73229C96.7431 4.73229 95.4584 5.70204 95.2307 7.17556L92.9606 20.8276C92.7297 22.3389 93.6826 23.2709 95.2633 23.2709C96.8439 23.2709 98.1253 22.3012 98.3855 20.7899L100.623 7.1787V7.17556Z" fill="white"/>
<path d="M133.477 0.428223L123.579 27.575H118.746L118.946 11.4796L113.849 27.575H109.016L108.062 0.428223H113.326L113.196 16.7156L118.356 0.428223H123.189L122.959 16.8321L128.25 0.428223H133.479H133.477Z" fill="white"/>
<path d="M130.745 27.5718L135.217 0.428223H139.592L143.602 14.8926L146.002 0.428223H151.001L146.529 27.575H142.155L138.109 13.1483L135.741 27.575H130.742L130.745 27.5718Z" fill="white"/>
</g>
</g>
<defs>
<linearGradient id="paint0_linear_365_153" x1="4.6118" y1="27.9688" x2="8.41128" y2="-0.941549" gradientUnits="userSpaceOnUse">
<stop stop-color="#8FD609"/>
<stop offset="0.423077" stop-color="#D9FF00"/>
</linearGradient>
<linearGradient id="paint1_linear_365_153" x1="22.831" y1="27.9685" x2="26.8477" y2="-0.885431" gradientUnits="userSpaceOnUse">
<stop stop-color="#8FD609"/>
<stop offset="0.423077" stop-color="#D9FF00"/>
</linearGradient>
<linearGradient id="paint2_linear_365_153" x1="41.1391" y1="27.9685" x2="45.5472" y2="-0.768382" gradientUnits="userSpaceOnUse">
<stop stop-color="#8FD609"/>
<stop offset="0.423077" stop-color="#D9FF00"/>
</linearGradient>
<clipPath id="clip0_365_153">
<rect width="151" height="28" fill="white"/>
</clipPath>
</defs>
</svg>
